<?xml version="1.0" encoding="UTF-8"?>
<svg id="Layer_1" data-name="Layer 1" xmlns="http://www.w3.org/2000/svg" viewBox="0 0 1000 449.31">
  <defs>
    <style>
      .cls-1 {
        fill: #f78504;
      }

      .cls-2 {
        fill: #3893af;
      }
    </style>
  </defs>
  <g>
    <path class="cls-2" d="M884.33,386.84c-1.94-2.72-5.75-3.46-8.78-1.74-19.73,10.44-42.65,17.24-64.53,19.15-30.15,2.62-61.44-2.83-88.11-15.35-2.76-1.32-5.82-.56-7.29,1.83-1.45,2.38-.75,5.42,1.65,7.25,25.29,19.14,56.59,28.62,88.6,26.95,1.61-.08,3.22-.2,4.83-.34,26.81-2.33,54.5-13.52,72.26-29.19h0c2.69-2.38,3.25-5.9,1.35-8.56Z"/>
    <path class="cls-2" d="M518.49,165.85c27.9,0,51.54,14.16,64.66,35.66,2.01,3.29,5.55,5.27,9.52,5.38.12,0,.23,0,.35,0,10.17.26,17.19-11.12,12.06-19.55-17.16-28.2-48.18-46.74-84.82-46.74-2.35,0-4.68.1-7,.26-15.67-67.97-75.24-117.5-149.85-117.5s-141.09,49.53-166.26,117.5c-2.3-.15-4.62-.26-6.97-.26-50.28,0-94.81,34.87-109.22,81.74-.97-.04-1.91-.15-2.89-.15-37.29,0-69.5,31.11-70.36,68.79-.81,35.3,27.71,62.46,63.04,62.46h5.26c6.09,0,11.96-4.12,13.52-10.1,2.11-8.05-3.53-15.08-11.3-15.08l-7.57-.07c-22.26,0-39.11-18.11-37.55-40.38,1.55-22.17,20.78-40.23,42.93-40.37,0,0,1.48.1,2.05.12l20.78.91,6.24-20.3c11.28-36.7,45.53-62.33,83.3-62.33,1.79,0,3.56.09,5.32.2l19.96,1.32,7.13-19.25c21.69-58.59,79.6-99.51,140.82-99.51s113.41,40.92,126.92,99.51l4.44,19.25,20.15-1.32c1.77-.12,3.56-.2,5.35-.2Z"/>
  </g>
  <g>
    <path class="cls-1" d="M172.9,405.54h9.84c.39-1.72.6-2.92.98-4.6h-15.07l-5.24,24.6h5.24l1.86-8.75h8.82l.98-4.6h-8.82l1.4-6.64Z"/>
    <path class="cls-1" d="M198.73,400.72l-16.44,24.11-.14.7h5.73l2.78-4.08h10.26l.88,4.08h5.34l.14-.7-6.11-24.11h-2.42ZM193.28,417.03l5.06-8.22,1.62,8.22h-6.68Z"/>
    <path class="cls-1" d="M228.91,400.9h-10.51l-5.24,24.63h5.27l1.72-8.15h4.57l3.34,8.15h5.45l.14-.74-3.8-8.22c3.27-1.37,5.48-4.01,5.94-7.24.84-4.18-1.26-8.43-6.89-8.43ZM230.91,408.98c-.39,2.14-2.25,4.08-4.64,4.08h-5.27c.56-2.53,1.09-5.02,1.62-7.55h5.27c2.39,0,3.3,1.69,3.02,3.48Z"/>
    <path class="cls-1" d="M275.11,406.77c0-3.65-2.46-5.8-6.36-5.8h-10.44l-5.24,24.56h11.42c5.76,0,9.52-3.79,9.52-8.47,0-1.93-.81-3.48-2.74-4.22,2.25-1.16,3.83-3.41,3.83-6.08ZM268.64,418.26c-.42,1.65-1.72,2.71-3.51,2.71h-5.83l1.23-5.83h5.59c.81,0,1.48.07,2,.49.6.53.77,1.65.53,2.64ZM269.8,408.31c-.39,1.65-1.83,2.88-3.62,2.88h-4.81l1.19-5.87h4.81c1.83,0,2.85,1.2,2.42,2.99Z"/>
    <path class="cls-1" d="M280.16,425.53h15.36l1.02-4.78h-10.05l1.19-5.62h9.14c.32-1.51.6-3.06.98-4.6h-9.14l1.05-4.99h9.77l.98-4.6h-15.07c-1.79,8.19-3.51,16.41-5.24,24.6Z"/>
    <polygon class="cls-1" points="318.39 406 314.95 410.88 314.77 410.88 313.44 406.17 311.5 400.94 306.06 400.94 305.88 401.71 311.36 415.69 309.29 425.53 314.56 425.53 316.6 415.94 328.05 401.71 328.23 400.94 322.43 400.94 318.39 406"/>
    <path class="cls-1" d="M345.27,400.55c-7.98,0-15.67,5.52-15.67,15.32,0,6.57,4.5,10.08,10.16,10.08,8.82,0,15.67-5.76,15.67-15.32,0-6.57-4.57-10.08-10.16-10.08ZM340.84,421.14c-4.81,0-6.47-3.44-5.73-7.59.84-5.27,4.99-8.15,9.14-8.15,3.3,0,5.83,2.07,5.83,6.08,0,6.36-4.71,9.66-9.24,9.66Z"/>
    <polygon class="cls-1" points="378.08 415.17 367.12 400.83 365.68 400.83 360.44 425.53 365.68 425.53 368.7 411.23 379.84 425.6 381.18 425.6 386.41 400.94 381.14 400.94 378.08 415.17"/>
    <path class="cls-1" d="M404.78,400.97h-9.14l-5.24,24.56h9.14c10.02,0,14.97-7.48,14.97-14.69,0-5.2-3.06-9.87-9.73-9.87ZM400.5,420.79h-3.83l3.2-15.07h4.04c4.36,0,5.27,2.71,5.27,5.94,0,4.53-3.44,9.14-8.68,9.14Z"/>
    <path class="cls-1" d="M432.64,405.5h6.57l-4.25,20.03h5.1l4.25-20.03h6.54c.32-1.55.6-3.02.98-4.57h-18.2c-.39,1.55-.67,3.02-.98,4.57Z"/>
    <polygon class="cls-1" points="471.36 410.32 461.95 410.32 463.95 400.94 458.71 400.94 453.48 425.53 458.71 425.53 460.93 415.13 470.34 415.13 468.13 425.53 473.4 425.53 478.64 400.94 473.37 400.94 471.36 410.32"/>
    <path class="cls-1" d="M482.6,425.53h15.36l1.02-4.78h-10.05l1.19-5.62h9.14c.32-1.51.6-3.06.98-4.6h-9.14l1.05-4.99h9.77l.98-4.6h-15.07c-1.79,8.19-3.51,16.41-5.24,24.6Z"/>
    <path class="cls-1" d="M533.79,405.43c2.92,0,5.13.74,5.52,4.01h4.95c.11-6.08-4.5-8.78-9.49-8.78-6.64,0-13.35,4.08-15.21,12.62-1.69,8.15,3.37,12.51,9.91,12.51,5.17,0,10.89-2.71,13.35-9.21h-5.38c-1.51,2.99-3.97,4.43-7.03,4.43-4.74,0-6.47-3.51-5.55-7.59.95-4.5,4.22-7.98,8.92-7.98Z"/>
    <path class="cls-1" d="M558.98,400.94h-5.27l-5.24,24.6h15.53c.39-1.69.6-3.02.98-4.71h-10.26l4.25-19.89Z"/>
    <path class="cls-1" d="M586.6,400.55c-7.98,0-15.67,5.52-15.67,15.32,0,6.57,4.5,10.08,10.16,10.08,8.82,0,15.67-5.76,15.67-15.32,0-6.57-4.57-10.08-10.16-10.08ZM582.17,421.14c-4.81,0-6.47-3.44-5.73-7.59.84-5.27,4.99-8.15,9.14-8.15,3.3,0,5.83,2.07,5.83,6.08,0,6.36-4.71,9.66-9.24,9.66Z"/>
    <path class="cls-1" d="M617.66,417.24c-.56,2.64-2.95,3.97-5.38,3.97s-4.29-1.34-3.73-3.97l3.48-16.3h-5.31l-3.48,16.41c-1.12,5.52,2.78,8.5,8.05,8.5,5.87,0,10.4-2.99,11.53-8.5l3.48-16.41h-5.16l-3.48,16.3Z"/>
    <path class="cls-1" d="M644.39,400.97h-9.14l-5.24,24.56h9.14c10.02,0,14.97-7.48,14.97-14.69,0-5.2-3.06-9.87-9.73-9.87ZM640.11,420.79h-3.83l3.2-15.07h4.04c4.36,0,5.27,2.71,5.27,5.94,0,4.53-3.44,9.14-8.68,9.14Z"/>
  </g>
  <g>
    <g>
      <path class="cls-1" d="M700.29,300.1c5.47-8.51,8.21-18.63,8.21-30.38,0-13.32-4.72-23.78-14.15-31.37-9.43-7.58-22.79-11.38-40.08-11.38h-56.4l-27.71,138.54h32.26l7.7-38.79h27.46l21.84,38.79h33.84l-24.35-42.65c2.79-.87,5.47-1.89,8.02-3.06,10.09-4.62,17.88-11.18,23.35-19.69ZM667.14,293.96c-5.94,4.82-14.18,7.22-24.74,7.22h-27.22l9.64-48.09h25.3c8.31,0,14.71,1.62,19.2,4.85,4.48,3.23,6.73,8.28,6.73,15.14,0,9.1-2.97,16.07-8.91,20.88Z"/>
      <path class="cls-1" d="M798.94,259.03l-2.87,14.49c-3.01-4.82-6.96-8.54-11.87-11.13-6.27-3.3-13.82-4.95-22.66-4.95-8.18,0-15.83,1.55-22.96,4.65-7.12,3.1-13.39,7.42-18.8,12.96-5.41,5.54-9.63,12.07-12.67,19.59-3.04,7.52-4.55,15.83-4.55,24.94,0,9.89,2.14,18.41,6.43,25.53,4.29,7.12,9.93,12.57,16.92,16.33,6.99,3.76,14.51,5.64,22.56,5.64,10.69,0,19.82-2.57,27.41-7.72,1.95-1.32,3.79-2.78,5.53-4.38l-2.06,10.52h29.29l20.98-106.47h-30.67ZM774.3,337.21c-4.68,2.9-10.06,4.35-16.13,4.35-7.65,0-13.62-2.11-17.91-6.33-4.29-4.22-6.43-9.96-6.43-17.22s1.39-13.09,4.16-18.31c2.77-5.21,6.5-9.3,11.18-12.27,4.68-2.97,9.99-4.45,15.93-4.45,7.78,0,13.79,2.15,18.01,6.43,4.22,4.29,6.33,9.99,6.33,17.12s-1.35,13.13-4.06,18.41c-2.71,5.28-6.4,9.37-11.08,12.27Z"/>
      <polygon class="cls-1" points="845.05 259.03 824.07 365.51 854.75 365.51 876.12 259.03 845.05 259.03"/>
      <path class="cls-1" d="M865.83,244.19c6.2,0,11.15-1.75,14.84-5.24,3.69-3.49,5.54-8.08,5.54-13.75,0-4.48-1.62-8.18-4.85-11.08-3.23-2.9-7.62-4.35-13.16-4.35-6.07,0-10.98,1.78-14.74,5.34-3.76,3.56-5.64,7.92-5.64,13.06,0,4.35,1.65,8.11,4.95,11.28,3.3,3.17,7.65,4.75,13.06,4.75Z"/>
      <path class="cls-1" d="M990.11,279.62c-2.64-7.26-7.13-12.76-13.46-16.53-6.33-3.76-13.99-5.64-22.96-5.64s-16.66,1.85-24.24,5.54c-3.96,1.93-7.57,4.42-10.86,7.46l2.25-11.42h-29.49l-20.98,106.47h30.87l10.69-53.83c1.98-9.37,5.54-16.29,10.69-20.78,5.15-4.48,11.68-6.73,19.59-6.73s12.7,2.11,15.54,6.33c2.84,4.22,3.4,10.23,1.68,18.01l-11.28,57h30.87l11.87-58.98c2.11-10.69,1.85-19.66-.79-26.91Z"/>
    </g>
    <g>
      <path class="cls-1" d="M264.18,213.37l-12.61,63.35c-.05-.1-.1-.19-.15-.28-3.6-6.56-8.85-11.64-15.62-15.09-6.67-3.4-14.86-5.13-24.33-5.13-8.76,0-16.96,1.64-24.39,4.87-7.42,3.23-13.96,7.79-19.45,13.55-5.49,5.77-9.77,12.66-12.72,20.47-2.94,7.78-4.42,16.41-4.42,25.67s1.98,17.41,5.88,24.23c3.93,6.87,9.54,12.21,16.69,15.85,7.06,3.6,15.31,5.43,24.53,5.43s17.1-1.68,24.33-4.98c5.63-2.57,10.7-5.98,15.14-10.15l-2.82,14.34h14.56l30.34-152.11h-14.96ZM245.69,302.32c0,9.59-2.04,18.31-6.06,25.92-4.01,7.57-9.51,13.56-16.37,17.8-6.84,4.23-14.81,6.37-23.69,6.37-10.93,0-19.46-2.84-25.37-8.44-5.95-5.64-8.85-13.43-8.85-23.79,0-9.6,2.04-18.28,6.06-25.81,4-7.51,9.55-13.5,16.48-17.81,6.91-4.29,14.84-6.47,23.59-6.47,10.93,0,19.47,2.81,25.38,8.35,5.86,5.5,8.84,13.54,8.84,23.88Z"/>
      <path class="cls-1" d="M372.34,276.69c-.05-.09-.09-.17-.14-.26-3.6-6.56-8.86-11.64-15.62-15.09-6.67-3.4-14.86-5.13-24.33-5.13-8.76,0-16.96,1.64-24.39,4.87-7.42,3.23-13.96,7.79-19.45,13.55-5.49,5.77-9.77,12.65-12.72,20.47-2.94,7.78-4.42,16.41-4.42,25.67s1.98,17.41,5.88,24.23c3.93,6.87,9.54,12.21,16.69,15.85,7.06,3.6,15.31,5.43,24.53,5.43,11.94,0,22.49-2.9,31.39-8.62,2.88-1.85,5.56-3.95,8.05-6.28l-2.77,14.11h14.56l21.61-108.48h-14.96l-3.89,19.69ZM366.47,302.32c0,9.59-2.04,18.31-6.06,25.92-4.01,7.57-9.51,13.56-16.37,17.8-6.84,4.23-14.81,6.37-23.69,6.37-10.93,0-19.46-2.84-25.37-8.44-5.95-5.64-8.85-13.43-8.85-23.79,0-9.6,2.04-18.28,6.06-25.81,4-7.51,9.55-13.5,16.48-17.81,6.91-4.29,14.84-6.47,23.59-6.47,10.93,0,19.47,2.81,25.38,8.35,5.86,5.51,8.84,13.54,8.84,23.88Z"/>
      <path class="cls-1" d="M444.58,347.57c-2.15,1.67-4.55,2.98-7.13,3.88-2.57.9-5.33,1.35-8.21,1.35-5.77,0-9.54-1.48-11.51-4.53-2.07-3.19-2.45-8.14-1.14-14.73l12.61-63.07h33.03l2.51-13.48h-32.84l4.52-22.61h-14.96l-4.53,22.61h-19.3l-2.51,13.48h19.1l-12.61,62.91c-1.26,6.61-1.11,12.42.47,17.29,1.63,5.05,4.69,8.98,9.1,11.66,4.27,2.61,9.55,3.93,15.67,3.93,4.03,0,8.15-.56,12.25-1.67,4.21-1.14,8.08-3.09,11.5-5.8l1.45-1.15-4.9-12.09-2.58,2.01Z"/>
      <path class="cls-1" d="M559.1,257.01l-3.89,19.68-.14-.25c-3.6-6.56-8.86-11.64-15.62-15.09-6.67-3.4-14.86-5.13-24.33-5.13-8.76,0-16.96,1.64-24.39,4.87-7.42,3.23-13.96,7.79-19.45,13.55-5.49,5.77-9.77,12.66-12.72,20.47-2.94,7.78-4.42,16.41-4.42,25.67s1.98,17.41,5.88,24.23c3.93,6.87,9.54,12.21,16.69,15.85,7.06,3.6,15.31,5.43,24.53,5.43,11.93,0,22.49-2.9,31.39-8.62,2.88-1.85,5.56-3.95,8.04-6.28l-2.77,14.11h14.56l21.61-108.48h-14.96ZM549.33,302.32c0,9.59-2.04,18.31-6.06,25.92-4.01,7.57-9.51,13.56-16.37,17.8-6.84,4.23-14.81,6.37-23.69,6.37-10.93,0-19.46-2.84-25.37-8.44-5.87-5.57-8.85-13.57-8.85-23.79,0-9.6,2.04-18.28,6.06-25.81,4-7.51,9.55-13.5,16.48-17.81,6.91-4.29,14.84-6.47,23.59-6.47,10.93,0,19.47,2.81,25.38,8.35,5.86,5.5,8.84,13.54,8.84,23.88Z"/>
    </g>
  </g>
</svg>